<svg width="25" height="25" viewBox="0 0 25 25" fill="none" xmlns="http://www.w3.org/2000/svg">
<ellipse rx="1.25" ry="1.24999" transform="matrix(-1 0 0 1 1.25 1.24999)" fill="#082629"/>
<ellipse rx="1.25" ry="1.24999" transform="matrix(-1 0 0 1 13.75 1.24999)" fill="#082629"/>
<ellipse rx="1.25" ry="1.24999" transform="matrix(-1 0 0 1 3.75 1.24999)" fill="#082629"/>
<ellipse rx="1.25" ry="1.24999" transform="matrix(-1 0 0 1 16.25 1.24999)" fill="#082629"/>
<ellipse rx="1.25" ry="1.24999" transform="matrix(-1 0 0 1 6.25 1.24999)" fill="#082629"/>
<ellipse rx="1.25" ry="1.24999" transform="matrix(-1 0 0 1 18.75 1.24999)" fill="#082629"/>
<ellipse rx="1.25" ry="1.24999" transform="matrix(-1 0 0 1 8.75 1.24999)" fill="#082629"/>
<ellipse rx="1.25" ry="1.24999" transform="matrix(-1 0 0 1 21.25 1.24999)" fill="#082629"/>
<ellipse rx="1.25" ry="1.24999" transform="matrix(-1 0 0 1 11.25 1.24999)" fill="#082629"/>
<ellipse rx="1.25" ry="1.24999" transform="matrix(-1 0 0 1 23.75 1.24999)" fill="#082629"/>
<ellipse rx="1.25" ry="1.24999" transform="matrix(-1 0 0 1 1.25 8.74999)" fill="#125B62"/>
<ellipse rx="1.25" ry="1.24999" transform="matrix(-1 0 0 1 13.75 8.74999)" fill="#125B62"/>
<ellipse rx="1.25" ry="1.24999" transform="matrix(-1 0 0 1 3.75 8.74999)" fill="#125B62"/>
<ellipse rx="1.25" ry="1.24999" transform="matrix(-1 0 0 1 16.25 8.74999)" fill="#125B62"/>
<ellipse rx="1.25" ry="1.24999" transform="matrix(-1 0 0 1 6.25 8.74999)" fill="#125B62"/>
<ellipse rx="1.25" ry="1.24999" transform="matrix(-1 0 0 1 18.75 8.74999)" fill="#125B62"/>
<ellipse rx="1.25" ry="1.24999" transform="matrix(-1 0 0 1 8.75 8.74999)" fill="#125B62"/>
<ellipse rx="1.25" ry="1.24999" transform="matrix(-1 0 0 1 21.25 8.74999)" fill="#125B62"/>
<ellipse rx="1.25" ry="1.24999" transform="matrix(-1 0 0 1 11.25 8.74999)" fill="#125B62"/>
<ellipse rx="1.25" ry="1.24999" transform="matrix(-1 0 0 1 23.75 8.74999)" fill="#125B62"/>
<ellipse rx="1.25" ry="1.24999" transform="matrix(-1 0 0 1 1.25 16.25)" fill="#81C6BF"/>
<ellipse rx="1.25" ry="1.24999" transform="matrix(-1 0 0 1 13.75 16.25)" fill="#81C6BF"/>
<ellipse rx="1.25" ry="1.24999" transform="matrix(-1 0 0 1 3.75 16.25)" fill="#81C6BF"/>
<ellipse rx="1.25" ry="1.24999" transform="matrix(-1 0 0 1 16.25 16.25)" fill="#81C6BF"/>
<ellipse rx="1.25" ry="1.24999" transform="matrix(-1 0 0 1 6.25 16.25)" fill="#81C6BF"/>
<ellipse rx="1.25" ry="1.24999" transform="matrix(-1 0 0 1 18.75 16.25)" fill="#81C6BF"/>
<ellipse rx="1.25" ry="1.24999" transform="matrix(-1 0 0 1 8.75 16.25)" fill="#81C6BF"/>
<ellipse rx="1.25" ry="1.24999" transform="matrix(-1 0 0 1 21.25 16.25)" fill="#81C6BF"/>
<ellipse rx="1.25" ry="1.24999" transform="matrix(-1 0 0 1 11.25 16.25)" fill="#81C6BF"/>
<ellipse rx="1.25" ry="1.24999" transform="matrix(-1 0 0 1 23.75 16.25)" fill="#81C6BF"/>
<ellipse rx="1.25" ry="1.24999" transform="matrix(-1 0 0 1 1.25 23.75)" fill="#E49678"/>
<ellipse rx="1.25" ry="1.24999" transform="matrix(-1 0 0 1 13.75 23.75)" fill="#E49678"/>
<ellipse rx="1.25" ry="1.24999" transform="matrix(-1 0 0 1 3.75 23.75)" fill="#E49678"/>
<ellipse rx="1.25" ry="1.24999" transform="matrix(-1 0 0 1 16.25 23.75)" fill="#E49678"/>
<ellipse rx="1.25" ry="1.24999" transform="matrix(-1 0 0 1 6.25 23.75)" fill="#E49678"/>
<ellipse rx="1.25" ry="1.24999" transform="matrix(-1 0 0 1 18.75 23.75)" fill="#E49678"/>
<ellipse rx="1.25" ry="1.24999" transform="matrix(-1 0 0 1 8.75 23.75)" fill="#E49678"/>
<ellipse rx="1.25" ry="1.24999" transform="matrix(-1 0 0 1 21.25 23.75)" fill="#E49678"/>
<ellipse rx="1.25" ry="1.24999" transform="matrix(-1 0 0 1 11.25 23.75)" fill="#E49678"/>
<ellipse rx="1.25" ry="1.24999" transform="matrix(-1 0 0 1 23.75 23.75)" fill="#E49678"/>
</svg>
