<svg width="100" height="50" viewBox="0 0 100 50" fill="none" xmlns="http://www.w3.org/2000/svg">
<g clip-path="url(#clip0_23_34)">
<path d="M99.7482 0.0422668H92.5697C91.6884 0.0424935 90.8228 0.272671 90.0593 0.709745C89.2959 1.14682 88.6614 1.77545 88.2196 2.53267L71.6954 30.8535C71.2494 31.6157 71.0144 32.4816 71.0144 33.3633C71.0144 34.2449 71.2494 35.1108 71.6954 35.873L78.5246 47.4973C78.9655 48.2476 79.5959 48.8707 80.3536 49.305C81.1112 49.7393 81.9698 49.9697 82.8445 49.9736L90.0852 50.0035C90.1293 50.0039 90.1728 49.9926 90.2112 49.9709C90.2495 49.9492 90.2814 49.9177 90.3036 49.8798C90.3257 49.8419 90.3374 49.7988 90.3373 49.7549C90.3373 49.7111 90.3255 49.668 90.3033 49.6301L82.309 35.859C81.8694 35.1009 81.638 34.2415 81.638 33.3668C81.638 32.492 81.8694 31.6326 82.309 30.8746L99.9664 0.417412C99.9885 0.379389 100 0.336258 100 0.292353C100 0.248448 99.9885 0.205317 99.9664 0.167297C99.9442 0.129276 99.9124 0.0977049 99.8742 0.0757574C99.8359 0.0538099 99.7924 0.0422593 99.7482 0.0422668Z" fill="#E49678"/>
<path d="M11.7433 7.77766C12.0146 7.45887 12.1529 7.00447 12.16 6.41093V6.09039C12.16 5.47571 12.0253 5.01074 11.7557 4.69196C11.6086 4.52922 11.4261 4.40184 11.2221 4.31946C11.0181 4.23707 10.7979 4.20184 10.5782 4.21642H9.93091V8.25672H10.5675C10.7872 8.2702 11.0071 8.23411 11.2107 8.15114C11.4144 8.06817 11.5964 7.94048 11.7433 7.77766Z" fill="#E49678"/>
<path d="M39.5354 8.82384H41.8159L39.5354 5.28374V8.82384Z" fill="#E49678"/>
<path d="M83.9334 3.69138e-09L76.6626 0.0317024C75.7831 0.0350643 74.9199 0.267662 74.1593 0.706241C73.3988 1.14482 72.7674 1.77401 72.3285 2.53091L52.0235 37.5392C51.8027 37.918 51.4856 38.2326 51.1038 38.4512C50.7221 38.6699 50.2891 38.785 49.8484 38.785C49.4077 38.785 48.9748 38.6699 48.593 38.4512C48.2112 38.2326 47.8941 37.918 47.6734 37.5392L46.8896 36.2024C46.7085 35.89 46.5981 35.5421 46.566 35.1831C46.5339 34.824 46.5809 34.4623 46.7038 34.1231C46.8266 33.7839 47.0224 33.4753 47.2774 33.2188C47.5324 32.9622 47.8406 32.7639 48.1806 32.6376C54.687 30.156 59.3262 23.9001 59.1967 16.5927C59.109 12.1694 57.2792 7.95647 54.0998 4.85774C50.9204 1.75901 46.6447 0.0213635 42.1901 0.0176125C42.1901 0.0176125 4.72428 0.0105675 0.250087 0.0158512C0.20592 0.0162803 0.162643 0.0282397 0.1246 0.0505292C0.0865567 0.0728188 0.055086 0.104654 0.0333461 0.142841C0.0116062 0.181027 0.000361883 0.224221 0.000741736 0.268087C0.00112159 0.311953 0.0131122 0.354948 0.0355102 0.392758L3.53258 6.34048C3.97407 7.09567 4.60733 7.72261 5.3691 8.15869C6.13088 8.59477 6.99452 8.82473 7.87378 8.8256H8.61505V3.20723H10.5782C11.1019 3.1964 11.6199 3.31759 12.0837 3.55948C12.5231 3.79524 12.884 4.15254 13.1229 4.58804C13.3764 5.05011 13.5047 5.56959 13.4953 6.09567V6.37395C13.5025 6.89754 13.3743 7.4142 13.1229 7.87453C12.9034 8.26707 12.5835 8.59513 12.1955 8.8256H15.3432V3.20723H19.6099V4.21642H16.6573V5.65888H19.1807V6.63461H16.6573V8.25672H19.6188V8.8256H21.7929C21.6172 8.70526 21.4631 8.55641 21.3372 8.38529C21.1244 8.0838 21.0132 7.72309 21.0197 7.35496H22.3444C22.3444 8.02189 22.7647 8.35535 23.6053 8.35535C23.8617 8.37116 24.117 8.30977 24.3377 8.17922C24.4215 8.12448 24.4897 8.04921 24.5357 7.96066C24.5816 7.87212 24.6038 7.7733 24.6001 7.67375C24.6056 7.56874 24.5844 7.46407 24.5385 7.3693C24.4927 7.27453 24.4236 7.1927 24.3377 7.13128C24.0435 6.95291 23.7244 6.81878 23.3907 6.73324C23.0193 6.62491 22.6575 6.48648 22.309 6.31935C21.5854 5.94831 21.2237 5.44812 21.2237 4.81877C21.2178 4.50105 21.3203 4.19072 21.5145 3.93814C21.7315 3.6693 22.0186 3.46464 22.3444 3.34637C22.735 3.19856 23.1502 3.12565 23.5681 3.13149C23.9862 3.12384 24.4013 3.20365 24.7864 3.36574C25.1204 3.50423 25.4081 3.73383 25.6163 4.02797C25.8136 4.31393 25.9171 4.65352 25.9124 5.00018H24.5984C24.605 4.87887 24.5835 4.75768 24.5355 4.64593C24.4875 4.53418 24.4144 4.43484 24.3217 4.35556C24.0996 4.1889 23.8246 4.10703 23.5468 4.12484C23.2826 4.10919 23.0203 4.17634 22.7966 4.31681C22.7133 4.37313 22.6454 4.44912 22.5989 4.53797C22.5525 4.62681 22.529 4.72572 22.5306 4.82581C22.5339 4.92836 22.5645 5.02822 22.6193 5.11517C22.6742 5.20213 22.7513 5.27306 22.8427 5.32072C23.1312 5.48705 23.4416 5.61272 23.7649 5.69411C24.5133 5.90898 25.0583 6.17375 25.3999 6.48843C25.5654 6.63727 25.6967 6.81964 25.7851 7.0232C25.8735 7.22677 25.917 7.44681 25.9124 7.66846C25.9206 7.89018 25.8768 8.11076 25.7845 8.3128C25.6922 8.51483 25.5539 8.6928 25.3804 8.83265H27.7904V3.20723H29.1045V8.8256H32.0979C31.8054 8.60796 31.5669 8.32658 31.401 8.0031C31.1629 7.5266 31.0413 7.001 31.0463 6.46905V6.05868C31.0332 5.5181 31.1436 4.98159 31.3691 4.48941C31.5667 4.06515 31.8904 3.71113 32.2965 3.47494C32.7292 3.23367 33.2191 3.11203 33.7152 3.12269C34.4731 3.12269 35.0642 3.29353 35.4886 3.63521C35.7089 3.82143 35.8895 4.04947 36.0198 4.30594C36.1501 4.56241 36.2276 4.84215 36.2476 5.12875H34.969C34.9387 4.83668 34.8003 4.56617 34.5806 4.36965C34.3418 4.19618 34.0496 4.11085 33.7543 4.12836C33.5577 4.11705 33.3614 4.1548 33.1833 4.23817C33.0052 4.32154 32.8509 4.44788 32.7346 4.60566C32.4981 4.92503 32.3799 5.3988 32.3799 6.02698V6.41269C32.3799 7.04792 32.507 7.52756 32.7612 7.85163C32.895 8.01507 33.0662 8.14443 33.2605 8.22898C33.4549 8.31352 33.6667 8.3508 33.8784 8.33774C34.3732 8.33774 34.7243 8.23734 34.9424 8.03832V6.99743H33.7454V6.07806H36.2565V8.49273C36.1416 8.62026 36.0097 8.73165 35.8646 8.82384H38.2178V3.20723H39.5319L42.0944 7.19645V3.20723H43.4049V8.91719C47.2655 9.51777 50.321 12.9311 50.321 16.9027C50.321 21.2811 46.597 24.9797 42.1777 24.9797H32.8073C32.5467 24.9809 32.2909 25.0493 32.0649 25.1784C31.839 25.3074 31.6508 25.4926 31.5188 25.7158C31.3868 25.9389 31.3155 26.1924 31.3119 26.4512C31.3084 26.71 31.3727 26.9652 31.4985 27.1919L35.1676 33.7824L42.9367 47.4515C43.3793 48.23 44.0242 48.8764 44.804 49.3231C45.5838 49.7698 46.47 50.0005 47.3701 49.9912L49.4521 49.9683L52.403 49.9859C53.2906 49.9909 54.1637 49.7624 54.9336 49.3238C55.7036 48.8851 56.3429 48.2519 56.7867 47.4885L84.1515 0.375145C84.1736 0.337123 84.1852 0.293991 84.1852 0.250086C84.1852 0.206181 84.1736 0.163051 84.1515 0.12503C84.1294 0.087009 84.0976 0.055438 84.0593 0.0334905C84.021 0.011543 83.9776 -7.53862e-06 83.9334 3.69138e-09Z" fill="#E49678"/>
</g>
<defs>
<clipPath id="clip0_23_34">
<rect width="100" height="50" fill="white"/>
</clipPath>
</defs>
</svg>
