<svg xmlns="http://www.w3.org/2000/svg" viewBox="0 0 563.9 283.89"><defs><style>.a4c558e7-3d57-4a92-b363-21936d227e8e{fill:#125c62;}</style></defs><g id="bdfe2965-7a36-49d3-999c-fbcfbe55a46f" data-name="Layer 2"><g id="e7ac8b20-0a10-4d22-bcf9-9fd2275b05f9" data-name="Layer 2"><path class="a4c558e7-3d57-4a92-b363-21936d227e8e" d="M562.48.24H522a28.36,28.36,0,0,0-24.53,14.14l-93.18,160.8a28.36,28.36,0,0,0,0,28.5l38.51,66a28.35,28.35,0,0,0,24.36,14.06l40.83.17a1.41,1.41,0,0,0,1.23-2.12l-45.08-78.19a28.35,28.35,0,0,1,0-28.3L563.71,2.37A1.42,1.42,0,0,0,562.48.24Z"/><path class="a4c558e7-3d57-4a92-b363-21936d227e8e" d="M66.22,44.16c1.53-1.81,2.31-4.39,2.35-7.76V34.58c0-3.49-.76-6.13-2.28-7.94a8.19,8.19,0,0,0-6.64-2.7H56V46.88h3.59A8.22,8.22,0,0,0,66.22,44.16Z"/><path class="a4c558e7-3d57-4a92-b363-21936d227e8e" d="M222.94,50.1H235.8L222.94,30Z"/><path class="a4c558e7-3d57-4a92-b363-21936d227e8e" d="M473.3,0l-41,.18a28.33,28.33,0,0,0-24.44,14.19L293.36,213.14a14.17,14.17,0,0,1-24.53,0l-4.42-7.59a14.1,14.1,0,0,1,7.28-20.24c36.69-14.09,62.85-49.61,62.12-91.1A96,96,0,0,0,237.91.1h0S26.64.06,1.41.09A1.42,1.42,0,0,0,.2,2.23L19.92,36A28.34,28.34,0,0,0,44.4,50.11h4.18V18.21H59.65a17.48,17.48,0,0,1,8.49,2A14.55,14.55,0,0,1,74,26.05a17.26,17.26,0,0,1,2.1,8.56v1.58A17.38,17.38,0,0,1,74,44.71a14.49,14.49,0,0,1-5.23,5.4H86.52V18.21h24.06v5.73H93.93v8.19h14.23v5.54H93.93v9.21h16.7v3.23h12.26a10.73,10.73,0,0,1-2.57-2.5,9.89,9.89,0,0,1-1.79-5.85H126q0,5.68,7.11,5.68a7.2,7.2,0,0,0,4.13-1,3.29,3.29,0,0,0,1.48-2.87,3.57,3.57,0,0,0-1.48-3.08,19.69,19.69,0,0,0-5.34-2.26,39.88,39.88,0,0,1-6.1-2.35q-6.12-3.16-6.12-8.52a8,8,0,0,1,1.64-5A10.71,10.71,0,0,1,126,19a18.64,18.64,0,0,1,6.9-1.22,16.81,16.81,0,0,1,6.87,1.33,10.81,10.81,0,0,1,4.68,3.76,9.54,9.54,0,0,1,1.67,5.52h-7.41a4.51,4.51,0,0,0-1.56-3.66,6.55,6.55,0,0,0-4.37-1.31,7.12,7.12,0,0,0-4.23,1.09,3.43,3.43,0,0,0-1.5,2.89,3.29,3.29,0,0,0,1.76,2.81,20.28,20.28,0,0,0,5.2,2.12q6.33,1.83,9.22,4.51a8.8,8.8,0,0,1,2.89,6.7,8.13,8.13,0,0,1-3,6.61h13.59V18.21h7.41v31.9H181a13.48,13.48,0,0,1-3.93-4.67,19.19,19.19,0,0,1-2-8.71V34.4a20.33,20.33,0,0,1,1.82-8.91,13,13,0,0,1,5.23-5.76,15.65,15.65,0,0,1,8-2q6.41,0,10,2.91a12.25,12.25,0,0,1,4.28,8.48h-7.21a6.73,6.73,0,0,0-2.19-4.31,7.17,7.17,0,0,0-4.66-1.37,6.65,6.65,0,0,0-5.75,2.71q-2,2.72-2,8.07v2.19q0,5.41,2.15,8.17a7.52,7.52,0,0,0,6.3,2.76c2.79,0,4.77-.57,6-1.7V39.73h-6.75V34.51h14.16V48.22a10.7,10.7,0,0,1-2.21,1.88h13.27V18.21h7.41l14.45,22.65V18.21h7.39V50.63c21.77,3.41,39,22.79,39,45.34,0,24.86-21,45.86-45.92,45.86H185a8.47,8.47,0,0,0-7.38,12.56l20.69,37.42h0l43.81,77.61a28.37,28.37,0,0,0,25,14.42l11.74-.13,16.64.1a28.36,28.36,0,0,0,24.72-14.18L474.53,2.13A1.42,1.42,0,0,0,473.3,0Z"/></g></g></svg>